<?xml version="1.0" encoding="utf-8"?>
<!-- Generator: Adobe Illustrator 15.0.0, SVG Export Plug-In . SVG Version: 6.00 Build 0)  -->
<!DOCTYPE svg PUBLIC "-//W3C//DTD SVG 1.1//EN" "http://www.w3.org/Graphics/SVG/1.1/DTD/svg11.dtd">
<svg version="1.1" id="Layer_1" xmlns="http://www.w3.org/2000/svg" xmlns:xlink="http://www.w3.org/1999/xlink" x="0px" y="0px"
	 width="18px" height="18px" viewBox="0 0 18 18" enable-background="new 0 0 18 18" xml:space="preserve">
<g>
	<path d="M17.959,9.907c-0.026-0.026-0.063-0.042-0.1-0.042h-1.269V4.973c0-0.037-0.016-0.073-0.041-0.1
		c-0.026-0.026-0.063-0.041-0.101-0.041H1.55c-0.037,0-0.073,0.015-0.1,0.041c-0.026,0.026-0.042,0.063-0.042,0.1v4.893H0.141
		c-0.038,0-0.074,0.015-0.1,0.042C0.015,9.933,0,9.969,0,10.006v5.84c0,0.037,0.015,0.073,0.041,0.1
		c0.027,0.025,0.063,0.041,0.1,0.041h1.268v1.872C1.409,17.937,1.472,18,1.55,18s0.141-0.063,0.141-0.142v-1.872h14.617v1.872
		c0,0.078,0.063,0.142,0.141,0.142c0.078,0,0.142-0.063,0.142-0.142v-1.872h1.269c0.037,0,0.073-0.016,0.1-0.041
		c0.026-0.026,0.041-0.063,0.041-0.1v-5.84C18,9.969,17.985,9.933,17.959,9.907z M1.691,5.114h14.617v4.751h-0.926V8.597
		c-0.001-0.521-0.425-0.946-0.946-0.946h-4.027c-0.521,0-0.945,0.425-0.946,0.946v1.268H8.537V8.597
		C8.536,8.076,8.112,7.651,7.591,7.651H3.564c-0.521,0-0.946,0.425-0.946,0.946v1.268H1.691V5.114z M15.101,9.865H9.745V8.597
		c0-0.183,0.074-0.348,0.195-0.469s0.286-0.195,0.469-0.195h4.027c0.183,0,0.348,0.074,0.469,0.195s0.195,0.287,0.195,0.469V9.865z
		 M8.255,9.865H2.899V8.597c0-0.183,0.074-0.348,0.195-0.469s0.287-0.195,0.469-0.195h4.027c0.183,0,0.348,0.074,0.469,0.195
		c0.121,0.121,0.195,0.287,0.195,0.469V9.865L8.255,9.865z M0.282,10.146h17.436v2.336H0.282V10.146z M0.282,15.704v-2.939h17.436
		v2.939H0.282z"/>
</g>
</svg>
