<?xml version="1.0" encoding="utf-8"?>
<!-- Generator: Adobe Illustrator 15.0.0, SVG Export Plug-In . SVG Version: 6.00 Build 0)  -->
<!DOCTYPE svg PUBLIC "-//W3C//DTD SVG 1.1//EN" "http://www.w3.org/Graphics/SVG/1.1/DTD/svg11.dtd">
<svg version="1.1" id="Layer_1" xmlns="http://www.w3.org/2000/svg" xmlns:xlink="http://www.w3.org/1999/xlink" x="0px" y="0px"
	 width="28px" height="28px" viewBox="0 0 28 28" enable-background="new 0 0 28 28" xml:space="preserve">
<g>
	<path fill="#FFFFFF" d="M14.273,5.79c-4.503,0-6.774,3.227-6.774,5.919c0,1.63,0.619,3.082,1.94,3.621
		c0.217,0.089,0.412,0.003,0.475-0.237c0.043-0.165,0.148-0.585,0.193-0.761c0.064-0.238,0.041-0.321-0.135-0.528
		c-0.381-0.45-0.626-1.032-0.626-1.858c0-2.396,1.792-4.539,4.667-4.539c2.544,0,3.942,1.555,3.942,3.633
		c0,2.731-1.208,5.039-3.004,5.039c-0.992,0-1.735-0.82-1.497-1.826c0.285-1.2,0.838-2.497,0.838-3.362
		c0-0.777-0.417-1.423-1.278-1.423c-1.015,0-1.828,1.048-1.828,2.451c0,0.896,0.303,1.5,0.303,1.5s-1.038,4.396-1.221,5.166
		c-0.36,1.532-0.054,3.412-0.025,3.601c0.015,0.113,0.159,0.141,0.224,0.055c0.094-0.122,1.302-1.612,1.712-3.1
		c0.116-0.425,0.666-2.607,0.666-2.607c0.329,0.629,1.291,1.182,2.316,1.182c3.044,0,5.113-2.778,5.113-6.496
		C20.274,8.407,17.894,5.79,14.273,5.79"/>
</g>
</svg>
