<?xml version="1.0" encoding="utf-8"?>
<!-- Generator: Adobe Illustrator 16.0.0, SVG Export Plug-In . SVG Version: 6.00 Build 0)  -->
<!DOCTYPE svg PUBLIC "-//W3C//DTD SVG 1.1//EN" "http://www.w3.org/Graphics/SVG/1.1/DTD/svg11.dtd">
<svg version="1.1" id="Capa_1" xmlns="http://www.w3.org/2000/svg" xmlns:xlink="http://www.w3.org/1999/xlink" x="0px" y="0px"
	 width="28.062px" height="28.062px" viewBox="241.969 241.969 28.062 28.062"
	 enable-background="new 241.969 241.969 28.062 28.062" xml:space="preserve">
<g>
	<g id="post-linkedin">
		<path fill="#FFFFFF" d="M261.6,249h-11.2c-0.77,0-1.4,0.63-1.4,1.4v11.2c0,0.771,0.63,1.4,1.4,1.4h11.2c0.771,0,1.4-0.63,1.4-1.4
			v-11.2C263,249.63,262.37,249,261.6,249z M253.2,260.9h-2.1v-6.3h2.1V260.9z M252.15,253.41c-0.7,0-1.26-0.56-1.26-1.26
			c0-0.7,0.56-1.26,1.26-1.26c0.7,0,1.26,0.56,1.26,1.26C253.41,252.85,252.85,253.41,252.15,253.41z M260.901,260.9H258.8v-3.71
			c0-0.561-0.49-1.05-1.05-1.05s-1.05,0.49-1.05,1.05v3.71h-2.1v-6.3h2.1v0.84c0.35-0.56,1.12-0.98,1.75-0.98
			c1.33,0,2.45,1.12,2.45,2.45V260.9z"/>
	</g>
</g>
</svg>
