<?xml version="1.0" encoding="utf-8"?>
<!-- Generator: Adobe Illustrator 15.0.0, SVG Export Plug-In . SVG Version: 6.00 Build 0)  -->
<!DOCTYPE svg PUBLIC "-//W3C//DTD SVG 1.1//EN" "http://www.w3.org/Graphics/SVG/1.1/DTD/svg11.dtd">
<svg version="1.1" id="Layer_1" xmlns="http://www.w3.org/2000/svg" xmlns:xlink="http://www.w3.org/1999/xlink" x="0px" y="0px"
	 width="28px" height="28px" viewBox="0 0 28 28" enable-background="new 0 0 28 28" xml:space="preserve">
<g>
	<path fill="#FFFFFF" d="M14.042,7.398c2.136,0,2.39,0.01,3.232,0.047c0.781,0.035,1.204,0.168,1.487,0.275
		c0.373,0.145,0.639,0.318,0.92,0.6c0.279,0.279,0.452,0.545,0.598,0.92c0.11,0.281,0.24,0.705,0.275,1.484
		c0.037,0.844,0.047,1.098,0.047,3.234c0,2.135-0.01,2.389-0.047,3.232c-0.035,0.779-0.165,1.203-0.275,1.484
		c-0.146,0.375-0.318,0.641-0.598,0.922c-0.281,0.279-0.547,0.453-0.92,0.598c-0.283,0.109-0.706,0.238-1.487,0.275
		c-0.843,0.037-1.097,0.047-3.232,0.047c-2.137,0-2.389-0.01-3.232-0.047c-0.78-0.037-1.204-0.166-1.486-0.275
		c-0.373-0.145-0.64-0.318-0.919-0.598c-0.28-0.281-0.454-0.547-0.599-0.922c-0.109-0.281-0.239-0.705-0.275-1.484
		c-0.038-0.844-0.047-1.098-0.047-3.232c0-2.137,0.009-2.391,0.047-3.234C7.566,9.945,7.696,9.521,7.806,9.24
		C7.95,8.865,8.124,8.6,8.404,8.32c0.279-0.281,0.546-0.455,0.919-0.6c0.282-0.107,0.706-0.24,1.486-0.275
		C11.653,7.408,11.905,7.398,14.042,7.398 M14.042,5.959c-2.172,0-2.444,0.01-3.298,0.047S9.311,6.18,8.802,6.379
		C8.276,6.582,7.828,6.855,7.385,7.301C6.938,7.744,6.666,8.191,6.463,8.719C6.264,9.227,6.131,9.807,6.09,10.66
		c-0.038,0.852-0.049,1.127-0.049,3.299s0.011,2.443,0.049,3.297c0.041,0.854,0.174,1.434,0.373,1.941
		c0.203,0.527,0.476,0.975,0.922,1.418c0.443,0.447,0.892,0.719,1.417,0.922c0.509,0.199,1.089,0.336,1.942,0.373
		s1.126,0.049,3.298,0.049c2.174,0,2.446-0.012,3.299-0.049c0.852-0.037,1.433-0.174,1.94-0.373
		c0.527-0.203,0.974-0.475,1.419-0.922c0.446-0.443,0.719-0.891,0.922-1.418c0.199-0.508,0.335-1.088,0.372-1.941
		c0.038-0.854,0.048-1.125,0.048-3.297s-0.01-2.447-0.048-3.299c-0.037-0.854-0.173-1.434-0.372-1.941
		c-0.203-0.527-0.476-0.975-0.922-1.418c-0.445-0.445-0.892-0.719-1.419-0.922c-0.508-0.199-1.089-0.336-1.94-0.373
		C16.488,5.969,16.216,5.959,14.042,5.959L14.042,5.959z"/>
	<path fill="#FFFFFF" d="M14.042,9.85c-2.269,0-4.108,1.84-4.108,4.109c0,2.268,1.84,4.107,4.108,4.107s4.108-1.84,4.108-4.107
		C18.15,11.689,16.311,9.85,14.042,9.85z M14.042,16.625c-1.472,0-2.666-1.193-2.666-2.666s1.194-2.668,2.666-2.668
		c1.474,0,2.668,1.195,2.668,2.668S15.516,16.625,14.042,16.625z"/>
	<circle fill="#FFFFFF" cx="18.313" cy="9.688" r="0.96"/>
</g>
</svg>
