<?xml version="1.0" encoding="utf-8"?>
<!-- Generator: Adobe Illustrator 16.0.0, SVG Export Plug-In . SVG Version: 6.00 Build 0)  -->
<!DOCTYPE svg PUBLIC "-//W3C//DTD SVG 1.1//EN" "http://www.w3.org/Graphics/SVG/1.1/DTD/svg11.dtd">
<svg version="1.1" id="Capa_1" xmlns="http://www.w3.org/2000/svg" xmlns:xlink="http://www.w3.org/1999/xlink" x="0px" y="0px"
	 width="28.062px" height="28.062px" viewBox="241.969 241.969 28.062 28.062"
	 enable-background="new 241.969 241.969 28.062 28.062" xml:space="preserve">
<g>
	<path fill="#FFFFFF" d="M263.724,252.218c-0.196-0.851-0.892-1.479-1.729-1.572c-1.984-0.222-3.992-0.223-5.992-0.222
		c-1.999-0.001-4.008,0-5.992,0.222c-0.837,0.094-1.533,0.722-1.729,1.572C248.003,253.43,248,254.752,248,256
		c0,1.248,0,2.57,0.279,3.782c0.195,0.851,0.891,1.479,1.729,1.572c1.984,0.222,3.992,0.223,5.992,0.222
		c2,0.001,4.007,0,5.991-0.222c0.838-0.094,1.534-0.722,1.729-1.572c0.279-1.212,0.28-2.534,0.28-3.782
		C264,254.752,264.002,253.43,263.724,252.218z M253.935,258.483c0-1.77,0-3.521,0-5.291c1.696,0.885,3.38,1.763,5.086,2.654
		C257.321,256.729,255.635,257.602,253.935,258.483z"/>
</g>
</svg>
