<?xml version="1.0" encoding="utf-8"?>
<!-- Generator: Adobe Illustrator 15.0.0, SVG Export Plug-In . SVG Version: 6.00 Build 0)  -->
<!DOCTYPE svg PUBLIC "-//W3C//DTD SVG 1.1//EN" "http://www.w3.org/Graphics/SVG/1.1/DTD/svg11.dtd">
<svg version="1.1" id="Layer_1" xmlns="http://www.w3.org/2000/svg" xmlns:xlink="http://www.w3.org/1999/xlink" x="0px" y="0px"
	 width="28px" height="28px" viewBox="0 0 28 28" enable-background="new 0 0 28 28" xml:space="preserve">
<g>
	<defs>
		<rect id="SVGID_1_" x="6.787" y="8.11" width="15.393" height="12.511"/>
	</defs>
	<clipPath id="SVGID_2_">
		<use xlink:href="#SVGID_1_"  overflow="visible"/>
	</clipPath>
	<path clip-path="url(#SVGID_2_)" fill="#FFFFFF" d="M22.18,9.591c-0.566,0.251-1.176,0.422-1.814,0.498
		c0.652-0.392,1.152-1.011,1.389-1.748c-0.609,0.362-1.285,0.625-2.006,0.768c-0.576-0.614-1.396-0.998-2.305-0.998
		c-1.744,0-3.158,1.414-3.158,3.158c0,0.248,0.027,0.488,0.082,0.72c-2.623-0.132-4.953-1.39-6.51-3.299
		C7.586,9.155,7.43,9.696,7.43,10.275c0,1.097,0.559,2.063,1.406,2.63c-0.52-0.017-1.006-0.159-1.432-0.396c0,0.013,0,0.026,0,0.04
		c0,1.53,1.09,2.807,2.533,3.098c-0.266,0.07-0.545,0.11-0.832,0.11c-0.203,0-0.4-0.021-0.594-0.057
		c0.402,1.255,1.566,2.167,2.949,2.191c-1.08,0.848-2.441,1.353-3.922,1.353c-0.254,0-0.506-0.014-0.754-0.044
		c1.398,0.897,3.059,1.42,4.844,1.42c5.807,0,8.984-4.813,8.984-8.987c0-0.136-0.004-0.272-0.01-0.407
		C21.221,10.78,21.756,10.226,22.18,9.591"/>
</g>
</svg>
